<svg width="160" height="110" viewBox="0 0 160 110" fill="none" xmlns="http://www.w3.org/2000/svg">
<path d="M71.9625 17.4706C67.1779 12.6859 60.6911 10 53.9241 10C49.4302 10 45.0598 11.187 41.2288 13.3855C39.374 14.7257 37.9412 16.143 36.3351 17.7491C31.5526 22.5338 29.7416 28.3618 29.7416 35.1268C29.7416 41.8915 33.9458 48.7867 38.7284 53.5692L63.0013 80.6565L63.0005 80.6563L80.7141 96.9419C83.2045 99.4324 86.7402 99.5678 89.2306 97.0773C91.7211 94.5868 90.842 90.5126 88.3515 88.0221L91.6044 90.2787C94.0949 92.7691 97.0285 93.4115 100.452 91.0465C102.924 88.575 102.939 84.5834 100.505 82.0887L102.037 82.6303C104.527 85.1208 107.809 86.0894 111.163 83.7293C113.653 81.2388 113.654 77.2 111.163 74.7096L108.857 72.4039C111.348 74.8943 114.53 74.3469 117.876 72.4039C120.367 69.9134 120.367 65.8756 117.876 63.3852L116.073 61.5824L107.224 47.4353L95.4125 40.9212L71.9625 17.4706Z" fill="#FED5DF"/>
<path d="M80.0227 70.5768C79.278 69.8339 78.4408 69.2163 77.5391 68.7335C77.2137 68.5592 77.041 68.1968 77.1129 67.8345C77.7745 64.4999 76.8176 60.9057 74.2376 58.3255C72.2491 56.337 69.6067 55.2431 66.794 55.2431C65.8931 55.2431 65.0098 55.3575 64.1595 55.5757C63.7923 55.67 63.4115 55.51 63.2227 55.1814C62.7714 54.3958 62.2128 53.6553 61.5423 52.9847C59.5537 50.9962 56.9091 49.9022 54.0964 49.9022C51.2838 49.9022 48.6414 50.9962 46.6528 52.9847L45.9375 53.7002C45.6133 54.0246 45.0874 54.0246 44.7632 53.7002L40.8697 49.8065C36.0872 45.0241 33.3991 38.5351 33.3991 31.7704C33.3991 25.0054 36.0872 18.5187 40.8697 13.734C40.988 13.6157 41.1085 13.4974 41.2288 13.3852C39.292 14.4956 37.4945 15.8658 35.8878 17.4703C31.1055 22.2552 28.4174 28.7419 28.4174 35.5069C28.4174 42.2717 31.1055 48.7606 35.888 53.5431L62.9995 80.6566L80.4773 98.1324C81.3844 99.0395 82.4971 99.6166 83.6635 99.8614C85.7041 100.293 87.9127 99.7161 89.4964 98.1324C91.6365 95.9943 91.9375 92.7126 90.3993 90.2527C90.1502 89.8479 89.8472 89.4661 89.4964 89.1151L90.4283 90.0472C90.4289 90.0428 90.4291 90.0384 90.4297 90.0341L91.6697 91.2741C94.1731 93.5367 98.04 93.4581 100.452 91.046C100.454 91.044 100.45 91.048 100.452 91.046L80.0227 70.5768Z" fill="#F4A2C0"/>
<path d="M87.7966 60.3681L111.162 83.7288C108.671 86.2156 104.635 86.2177 102.144 83.7288L100.504 82.089C100.523 82.1078 100.542 82.1285 100.56 82.1493L83.2881 64.877C82.0431 63.6319 82.0431 61.6134 83.2881 60.3683C84.533 59.1233 86.5516 59.1231 87.7966 60.3681Z" fill="#F4A2C0"/>
<path d="M117.876 72.4036C115.385 74.8944 111.348 74.8944 108.857 72.4036L92.3099 55.8562C91.0646 54.611 91.0648 52.592 92.3105 51.347L92.3115 51.346C93.5565 50.1013 95.5747 50.1017 96.8195 51.3466L117.876 72.4036Z" fill="#F4A2C0"/>
<path d="M131.582 35.507C131.582 42.2718 128.894 48.7607 124.112 53.5432L120.224 57.431L116.22 59.5963L97.7679 41.6129C93.0563 36.9013 85.4562 38.4575 80.5707 42.9754C80.4131 43.1211 80.3636 43.1825 80.2116 43.3345L76.6164 46.9275C74.5904 48.9555 71.9334 49.9685 69.2786 49.9685C66.6216 49.9685 63.9668 48.9555 61.9387 46.9275C61.0108 45.9996 61.0108 44.4969 61.9387 43.569L88.0373 17.4706C92.822 12.6859 99.3087 10 106.076 10C112.841 10 119.327 12.6861 124.112 17.4706C128.894 22.2553 131.582 28.742 131.582 35.507Z" fill="#6D92F0"/>
<path d="M84.2486 84.3197C81.7582 81.8293 77.9812 81.6373 75.4907 84.1275L77.0865 82.5317C78.1937 81.4245 78.8063 80.0112 78.929 78.5641C78.9558 78.2475 78.9999 76.9999 78.4999 76.4999C78.4044 75.0069 77.9755 75.0377 76.8346 73.8968C74.3631 71.4253 70.6206 71.0239 68.1259 73.4578L71.3032 70.2804C72.3927 69.1909 73.0056 67.8125 73.1419 66.3898C73.1419 66.3898 73.1419 64.7183 72.9999 64.4999C72.4999 63.9999 72.2287 62.943 71.003 61.7171C68.5125 59.2266 65.2491 59.2266 62.7586 61.7171L57.3135 67.011L58.6064 64.9394C60.0072 63.5386 60.6216 61.6782 60.4465 59.849C60.4465 59.849 59.5112 57.2961 58.4215 56.2064C55.931 53.7159 51.8078 54.7905 49.3175 57.281L44.1013 62.2432C42.3712 63.9734 41.5912 66.0158 42.2648 68.2018C42.3712 68.547 42.3533 69.3823 42.3533 69.3823C42.6499 69.9647 43.0418 70.5111 43.5288 70.9983C46.0193 73.4888 50.057 73.4888 52.5475 70.9983L54.3692 69.8732L50.7631 73.3792C48.9575 75.1848 48.4332 77.4347 48.5448 80.1901C48.8531 81.0447 49.3482 81.847 50.0331 82.5319C52.5141 85.0129 56.53 85.0215 59.0227 82.5595C57.821 83.7761 57.5241 84.9132 57.4999 86.4999C56.9999 87.4999 57.6663 89.477 57.6663 89.477C57.9776 90.2413 58.4301 90.929 59.0503 91.5492C61.5408 94.0396 65.5786 94.0396 68.069 91.5492L70.7429 88.8753C69.2502 90.368 68.9479 92.2282 69.2445 94.1662C69.3459 94.8291 69.5681 96.2772 69.5681 96.2772C69.8647 96.8598 70.2556 97.4068 70.7429 97.894C73.2333 100.385 77.2711 100.385 79.7616 97.894L84.5092 93.1464C85.5817 92.0739 86.1904 90.7142 86.3391 89.3148C86.3391 89.3148 86.3553 88.33 86.3391 87.9999C86.265 86.4732 85.4145 85.4856 84.2486 84.3197Z" fill="#6D92F0"/>
<path d="M120.224 57.4313L116.072 61.5829L97.8245 43.335C92.961 38.4715 85.0751 38.4715 80.2117 43.335L84.3633 39.1834C89.2267 34.3199 97.1126 34.3199 101.976 39.1834L120.224 57.4313Z" fill="#4567BC"/>
<path d="M60.4463 59.8495C57.9429 57.5849 54.0778 57.6597 51.6637 60.0738L42.3561 69.3814C41.1334 66.986 41.5257 63.9824 43.5288 61.9793L49.5879 55.9222C52.0788 53.4313 56.1162 53.4313 58.607 55.9222C59.7052 57.0203 60.3175 58.4153 60.4463 59.8495Z" fill="#4567BC"/>
<path d="M73.1706 65.7716C73.1706 65.9791 73.1601 66.1846 73.1416 66.3901C72.9113 66.0456 72.6455 65.7176 72.3404 65.4145C69.8495 62.9236 65.8122 62.9236 63.3213 65.4145L48.5445 80.1903C47.7309 77.9382 48.2282 75.318 50.0322 73.5142L62.2832 61.2631C64.7741 58.7722 68.8114 58.7722 71.3023 61.2631C72.548 62.5063 73.1706 64.1401 73.1706 65.7716Z" fill="#4567BC"/>
<path d="M78.9536 78.0227C78.9536 78.2032 78.9454 78.384 78.9286 78.5645C78.7501 78.3237 78.5508 78.0932 78.3308 77.8732C75.8419 75.3823 71.8026 75.3823 69.3137 77.8732L57.6659 89.477C56.6945 87.1605 57.1642 84.4159 59.049 82.5311L68.0681 73.514C70.5569 71.0232 74.5963 71.0232 77.0852 73.514C78.3308 74.7577 78.9536 76.3912 78.9536 78.0227Z" fill="#4567BC"/>
<path d="M86.3765 88.6361C86.3765 88.8624 86.364 89.0887 86.3393 89.315C86.221 89.1737 86.0942 89.0347 85.9615 88.9019C83.4726 86.411 79.4332 86.411 76.9444 88.9019L69.5681 96.2776C68.3476 93.8822 68.7409 90.8779 70.742 88.8749L75.4914 84.1277C77.9803 81.6368 82.0196 81.6368 84.5085 84.1277C85.7539 85.3729 86.3765 87.0044 86.3765 88.6361Z" fill="#4567BC"/>
</svg>
