<svg width="20" height="20" viewBox="0 0 20 20" fill="none" xmlns="http://www.w3.org/2000/svg">
<path d="M10.8283 3.87275C11.4298 3.11251 11.8346 2.05356 11.7233 1C10.8592 1.03451 9.81177 1.60496 9.19277 2.36197C8.63557 3.0381 8.14635 4.11862 8.27921 5.14953C9.24221 5.2261 10.2299 4.63515 10.8283 3.87275Z" fill="#1A1A1A"/>
<path d="M14.693 10.381C14.6734 8.10347 16.4696 7.01001 16.5489 6.95933C15.5396 5.41188 13.9658 5.19621 13.4076 5.17033C12.0676 5.02906 10.7926 5.99743 10.1149 5.99743C9.43717 5.99743 8.38663 5.19405 7.27841 5.2167C5.81589 5.23719 4.47285 6.10635 3.71996 7.47047C2.20388 10.2246 3.33064 14.3073 4.81067 16.5406C5.53163 17.634 6.39163 18.8623 7.52147 18.8181C8.61218 18.7739 9.02416 18.0815 10.3404 18.0815C11.6567 18.0815 12.0264 18.8181 13.1789 18.7997C14.35 18.7739 15.0926 17.6804 15.8074 16.5869C16.6354 15.3177 16.9794 14.0895 16.999 14.0248C16.9733 14.015 14.7146 13.1071 14.6919 10.381H14.693Z" fill="#1A1A1A"/>
</svg>
