<svg width="160" height="110" viewBox="0 0 160 110" fill="none" xmlns="http://www.w3.org/2000/svg">
<path d="M128.829 65.1599C109.88 87.6659 76.5442 58.9311 58.2172 83.6085L57.1645 79.8997V79.8839C53.5118 66.9033 49.8592 53.9174 46.2066 40.9262C45.8557 39.69 45.5207 38.4537 45.1698 37.2175C63.4968 12.5401 96.849 41.2749 115.782 18.7689C116.707 17.6594 117.584 18.1349 117.393 19.7515C117.297 20.5123 117.186 21.2731 117.09 22.018C115.989 29.9427 114.65 36.9798 113.118 43.3512C112.688 45.1422 112.257 46.8697 111.794 48.5656C111.765 48.6857 111.744 48.8074 111.731 48.9301C111.714 49.3744 111.895 49.8035 112.225 50.103C116.976 54.3855 122.236 58.0741 127.888 61.0866C128.335 61.3085 128.766 61.5145 129.196 61.7047C129.93 62.0217 129.755 64.0504 128.829 65.1599Z" fill="#EEEEEF"/>
<path d="M32.8732 24.8456L33.0933 24.7845C34.0766 24.5116 35.1287 24.638 36.0182 25.1359C36.9077 25.6338 37.5617 26.4624 37.8364 27.4395L57.2999 96.676C57.7575 98.3037 56.8005 99.9918 55.1624 100.447L53.4592 100.919C51.8211 101.374 50.1222 100.423 49.6647 98.7953L30.2012 29.5588C29.6292 27.5241 30.8254 25.414 32.873 24.8457L32.8732 24.8456Z" fill="#4567BC"/>
<path d="M121.68 55.994C102.731 78.5001 69.3951 49.7652 51.0682 74.4426C50.7173 73.2064 47.9579 73.0637 47.607 71.8275V71.8117C43.9543 58.8311 40.3017 45.8452 36.6491 32.854C36.2981 31.6178 38.3717 29.2879 38.0208 28.0517C56.3478 3.37426 89.7 32.1091 108.633 9.60304C109.558 8.49359 110.435 8.96907 110.244 10.5857C110.148 11.3465 110.037 12.1072 109.941 12.8522C108.84 20.7768 107.501 27.8139 105.969 34.1853C105.539 35.9763 105.108 37.7039 104.645 39.3998C104.616 39.5198 104.595 39.6416 104.582 39.7643C104.565 40.2085 104.746 40.6376 105.076 40.9372C109.827 45.2196 115.087 48.9083 120.739 51.9207C121.186 52.1426 121.617 52.3487 122.047 52.5389C122.781 52.8559 122.606 54.8846 121.68 55.994Z" fill="#6D92F0"/>
</svg>
