<svg width="120" height="36" viewBox="0 0 120 36" fill="none" xmlns="http://www.w3.org/2000/svg">
<g clip-path="url(#clip0_613_31350)">
<path d="M34.3038 4.28773C34.2217 4.24231 34.1335 4.19518 34.042 4.14549C33.9836 4.10864 33.9234 4.07437 33.8615 4.04181C31.2475 2.67254 25.3974 0.140525 17.6662 0C17.6629 0 17.6595 0 17.6561 0H17.651C9.42922 0.149094 3.33512 3.00415 0.998147 4.28773C0.346539 4.64589 -0.0415444 5.34423 0.00336484 6.09313C0.173681 8.94733 0.905786 16.348 3.99944 21.6751C8.00907 28.5797 14.0379 33.0799 16.5884 34.8065C16.9104 35.025 17.2807 35.1321 17.651 35.1312C17.6544 35.1312 17.6569 35.1312 17.6603 35.1312C17.6976 35.1312 17.7357 35.1295 17.773 35.1278C17.7798 35.1278 17.7857 35.1278 17.7925 35.1278C18.1247 35.1047 18.4526 34.9959 18.7424 34.7996C21.0243 33.2547 26.0524 29.5051 29.9536 23.8216C29.9815 23.7804 30.007 23.7384 30.0315 23.6965C30.423 22.9955 30.2298 22.0976 29.5469 21.6537L26.2007 19.4944L26.1939 19.4893C25.9889 19.3453 20.898 15.7765 20.6192 15.4895C20.6023 15.4715 19.6567 16.3326 19.0042 17.4885C18.6102 18.1868 18.3043 18.8106 18.2001 19.6478C18.1314 20.1979 18.4085 20.7343 18.861 21.0462L22.7706 23.7299C20.7387 26.0545 18.2391 27.9276 17.7103 28.2609C17.6908 28.2729 17.6739 28.2764 17.6561 28.2729C17.6527 28.2729 17.6493 28.2729 17.6459 28.2712C17.6383 28.2687 17.6315 28.2652 17.6239 28.2601C16.8477 27.764 12.9406 24.9689 9.95966 20.7549C9.5953 20.2399 9.2445 19.6983 8.91488 19.132C6.88041 15.6351 6.43894 10.7416 6.34489 9.02445C6.3254 8.67313 6.48893 8.34924 6.77534 8.14959C8.08279 7.23789 12.1161 5.91919 17.6586 5.81722C23.2036 5.91833 27.2395 7.23789 28.547 8.14959C28.8334 8.34924 28.9961 8.67313 28.9774 9.02445C28.9673 9.20781 28.9537 9.42717 28.9342 9.67652C28.8478 10.787 28.3165 13.499 28.2394 14.0028C28.1648 14.4861 28.3436 14.7003 28.6021 14.9659C29.0435 15.4192 29.6511 15.8245 30.5577 16.3523C31.8372 17.0978 32.9744 17.5922 33.1116 17.6436C33.121 17.647 33.1193 17.6462 33.1193 17.6462C33.1379 17.587 33.1498 17.5759 33.1616 17.5356C34.4555 13.7946 35.1978 7.45725 35.2037 7.40327C35.2097 7.34929 35.2647 6.86173 35.2817 6.6201C35.2893 6.51813 35.2944 6.36989 35.2969 6.28507C35.2978 6.24479 35.2978 6.17796 35.3012 6.09141C35.3266 5.34166 34.958 4.64504 34.3064 4.28687L34.3038 4.28773Z" fill="black"/>
<path d="M50.5958 9.7245H52.7938V14.7654C51.4897 15.8313 49.6671 16.3737 47.8978 16.3737C44.0204 16.3737 41.1614 13.6455 41.1614 9.86845C41.1614 6.09142 44.0204 3.36403 47.9334 3.36403C50.0238 3.36403 51.7753 4.06837 52.9548 5.42392L51.4897 6.86945C50.5068 5.87549 49.3815 5.42392 48.041 5.42392C45.3787 5.42392 43.5027 7.24903 43.5027 9.86845C43.5027 12.4879 45.3787 14.3138 48.0232 14.3138C48.9163 14.3138 49.7925 14.133 50.5966 13.6635V9.7245H50.5958Z" fill="black"/>
<path d="M64.3143 6.54384V16.1929H62.1883V14.9642C61.4731 15.8493 60.3478 16.3198 59.115 16.3198C56.667 16.3198 55.0053 14.9642 55.0053 12.0552V6.54384H57.2389V11.7475C57.2389 13.4998 58.0609 14.3318 59.4725 14.3318C61.0274 14.3318 62.0815 13.3559 62.0815 11.4228V6.54384H64.3151H64.3143Z" fill="black"/>
<path d="M74.762 10.5377V16.1929H72.6538V15.019C72.1174 15.8502 71.0811 16.3198 69.6517 16.3198C67.4715 16.3198 66.0962 15.109 66.0962 13.4287C66.0962 11.7484 67.1681 10.5557 70.0626 10.5557H72.5284V10.4108C72.5284 9.09214 71.7421 8.31497 70.1516 8.31497C69.0797 8.31497 67.9714 8.67656 67.2571 9.27294L66.3818 7.62862C67.4003 6.83346 68.8831 6.43587 70.4202 6.43587C73.1715 6.43587 74.762 7.75458 74.762 10.5377ZM72.5284 13.1759V12.0552H70.2236C68.7052 12.0552 68.2934 12.6335 68.2934 13.3379C68.2934 14.151 68.9721 14.6754 70.116 14.6754C71.2599 14.6754 72.153 14.169 72.5284 13.1759Z" fill="black"/>
<path d="M82.5771 6.43587V8.58574C82.3805 8.54975 82.2195 8.53175 82.0593 8.53175C80.3621 8.53175 79.2902 9.5437 79.2902 11.5128V16.1929H77.0566V6.54384H79.1834V7.95337C79.8266 6.94142 80.9883 6.43587 82.5779 6.43587H82.5771Z" fill="black"/>
<path d="M93.3426 2.78565V16.1929H91.1988V14.9462C90.448 15.8673 89.3406 16.3189 88.0356 16.3189C85.2657 16.3189 83.2109 14.3678 83.2109 11.368C83.2109 8.36809 85.2657 6.43502 88.0356 6.43502C89.2685 6.43502 90.3591 6.85059 91.109 7.73573V2.78565H93.3426ZM91.1446 11.3688C91.1446 9.52571 89.9117 8.35181 88.3034 8.35181C86.6952 8.35181 85.4623 9.52571 85.4623 11.3688C85.4623 13.2119 86.6952 14.3867 88.3034 14.3867C89.9117 14.3867 91.1446 13.2119 91.1446 11.3688Z" fill="black"/>
<path d="M95.4101 3.59881C95.4101 2.84049 96.0176 2.24326 96.8396 2.24326C97.6615 2.24326 98.269 2.80365 98.269 3.54397C98.269 4.33914 97.6793 4.95351 96.8396 4.95351C95.9998 4.95351 95.4101 4.35713 95.4101 3.59795V3.59881ZM95.7134 6.54384H97.9471V16.1929H95.7134V6.54384Z" fill="black"/>
<path d="M108.308 10.5377V16.1929H106.199V15.019C105.663 15.8502 104.627 16.3198 103.197 16.3198C101.017 16.3198 99.6417 15.109 99.6417 13.4287C99.6417 11.7484 100.714 10.5557 103.608 10.5557H106.074V10.4108C106.074 9.09214 105.288 8.31497 103.697 8.31497C102.625 8.31497 101.517 8.67656 100.803 9.27294L99.9273 7.62862C100.946 6.83346 102.429 6.43587 103.966 6.43587C106.717 6.43587 108.308 7.75458 108.308 10.5377ZM106.074 13.1759V12.0552H103.769C102.251 12.0552 101.84 12.6335 101.84 13.3379C101.84 14.151 102.518 14.6754 103.662 14.6754C104.806 14.6754 105.699 14.169 106.075 13.1759H106.074Z" fill="black"/>
<path d="M120 10.6636V16.1929H117.766V10.9532C117.766 9.23695 116.927 8.40579 115.497 8.40579C113.907 8.40579 112.835 9.38176 112.835 11.3148V16.1938H110.601V6.54384H112.728V7.79057C113.461 6.90543 114.622 6.43502 116.016 6.43502C118.303 6.43502 120.001 7.75372 120.001 10.6636H120Z" fill="black"/>
<path d="M53.4386 19.9117V32.3242H51.1592V27.0048H44.8118V32.3242H42.5324V19.9117H44.8118V25.0357H51.1592V19.9117H53.4386Z" fill="black"/>
<path d="M55.3833 27.5892C55.3833 24.7521 57.4872 22.7479 60.3631 22.7479C63.239 22.7479 65.3607 24.7512 65.3607 27.5892C65.3607 30.4271 63.2737 32.4476 60.3631 32.4476C57.4525 32.4476 55.3833 30.4262 55.3833 27.5892ZM63.1509 27.5892C63.1509 25.7803 61.9587 24.6279 60.3631 24.6279C58.7676 24.6279 57.5923 25.7803 57.5923 27.5892C57.5923 29.398 58.7845 30.5505 60.3631 30.5505C61.9417 30.5505 63.1509 29.398 63.1509 27.5892Z" fill="black"/>
<path d="M67.0512 19.1671H69.2433V32.3242H67.0512V19.1671Z" fill="black"/>
<path d="M80.8807 19.1671V32.3242H78.7767V31.1006C78.0404 32.0054 76.9533 32.4484 75.6729 32.4484C72.9546 32.4484 70.9388 30.5333 70.9388 27.59C70.9388 24.6467 72.9555 22.7488 75.6729 22.7488C76.8829 22.7488 77.9523 23.1566 78.6886 24.0255V19.1671H80.8807ZM78.7234 27.59C78.7234 25.7812 77.5134 24.6287 75.9356 24.6287C74.3578 24.6287 73.1478 25.7812 73.1478 27.59C73.1478 29.3989 74.3578 30.5513 75.9356 30.5513C77.5134 30.5513 78.7234 29.3989 78.7234 27.59Z" fill="black"/>
<path d="M82.9101 19.9648C82.9101 19.2202 83.5066 18.635 84.3125 18.635C85.1183 18.635 85.7157 19.1851 85.7157 19.9117C85.7157 20.6914 85.1369 21.2947 84.3125 21.2947C83.488 21.2947 82.9101 20.7094 82.9101 19.9648ZM83.2084 22.855H85.4004V32.3242H83.2084V22.855Z" fill="black"/>
<path d="M96.9319 26.8977V32.3233H94.7398V27.1813C94.7398 25.4967 93.9154 24.681 92.513 24.681C90.9522 24.681 89.9006 25.639 89.9006 27.536V32.3242H87.7086V22.855H89.7956V24.0786C90.5141 23.2098 91.6538 22.7488 93.0223 22.7488C95.2669 22.7488 96.9327 24.0435 96.9327 26.8977H96.9319Z" fill="black"/>
<path d="M108.511 22.855V30.8872C108.511 34.3267 106.74 35.8878 103.461 35.8878C101.708 35.8878 99.9713 35.4269 98.902 34.54L99.8841 32.8734C100.709 33.5649 102.041 34.0079 103.339 34.0079C105.408 34.0079 106.32 33.0508 106.32 31.1357V30.6387C105.548 31.4896 104.444 31.8975 103.181 31.8975C100.498 31.8975 98.447 30.0535 98.447 27.3047C98.447 24.5559 100.498 22.7479 103.181 22.7479C104.496 22.7479 105.654 23.1738 106.425 24.1137V22.855H108.511ZM106.354 27.3055C106.354 25.7101 105.162 24.6279 103.514 24.6279C101.866 24.6279 100.656 25.7092 100.656 27.3055C100.656 28.9019 101.848 30.0184 103.514 30.0184C105.18 30.0184 106.354 28.919 106.354 27.3055Z" fill="black"/>
<path d="M110.006 31.3842L110.849 29.6996C111.672 30.2497 112.935 30.6396 114.11 30.6396C115.496 30.6396 116.074 30.2497 116.074 29.5934C116.074 27.7845 110.288 29.4871 110.288 25.7101C110.288 23.9192 111.883 22.7488 114.408 22.7488C115.653 22.7488 117.073 23.0504 117.916 23.5645L117.073 25.2491C116.179 24.717 115.285 24.5396 114.391 24.5396C113.058 24.5396 112.426 24.9835 112.426 25.6038C112.426 27.5189 118.213 25.8163 118.213 29.5231C118.213 31.2959 116.6 32.4484 113.97 32.4484C112.409 32.4484 110.849 31.9874 110.006 31.3842Z" fill="black"/>
</g>
<defs>
<clipPath id="clip0_613_31350">
<rect width="120" height="35.8879" fill="white"/>
</clipPath>
</defs>
</svg>
