<svg width="24" height="24" viewBox="0 0 24 24" fill="none" xmlns="http://www.w3.org/2000/svg">
<path d="M12 1C5.92545 1 1 5.92545 1 12C1 18.0746 5.92545 23 12 23C18.0746 23 23 18.0746 23 12C23 5.92545 18.0746 1 12 1ZM17.2864 9.29174C17.2937 9.40714 17.2937 9.52746 17.2937 9.64531C17.2937 13.2498 14.5487 17.4018 9.53237 17.4018C7.98549 17.4018 6.55156 16.9525 5.34353 16.179C5.56451 16.2036 5.77567 16.2134 6.00156 16.2134C7.27835 16.2134 8.45201 15.7812 9.3875 15.0496C8.18929 15.025 7.18259 14.2393 6.83884 13.1589C7.2587 13.2203 7.63683 13.2203 8.06897 13.1098C7.45201 12.9845 6.89746 12.6494 6.49955 12.1615C6.10164 11.6736 5.8849 11.0631 5.88616 10.4335V10.3991C6.2471 10.6029 6.67188 10.7281 7.11629 10.7453C6.74269 10.4963 6.4363 10.159 6.22429 9.76324C6.01228 9.36749 5.9012 8.92553 5.90089 8.47656C5.90089 7.9683 6.03348 7.50424 6.27165 7.10156C6.95646 7.94458 7.81099 8.63405 8.77971 9.12518C9.74843 9.61631 10.8097 9.8981 11.8944 9.95223C11.5089 8.09844 12.8937 6.59821 14.5585 6.59821C15.3442 6.59821 16.0513 6.92723 16.5498 7.45759C17.1661 7.34219 17.7554 7.11138 18.2808 6.80201C18.077 7.43304 17.6498 7.96585 17.0826 8.30223C17.6326 8.2433 18.1629 8.09107 18.654 7.87746C18.2833 8.42254 17.8192 8.90625 17.2864 9.29174V9.29174Z" fill="white"/>
</svg>
