<svg width="24" height="24" viewBox="0 0 24 24" fill="none" xmlns="http://www.w3.org/2000/svg">
<path d="M13.8368 11.8086L11.2632 10.6078C11.0386 10.5035 10.8542 10.6204 10.8542 10.8691V13.1309C10.8542 13.3796 11.0386 13.4965 11.2632 13.3922L13.8356 12.1914C14.0614 12.0859 14.0614 11.9141 13.8368 11.8086ZM12 1C5.92479 1 1 5.92479 1 12C1 18.0752 5.92479 23 12 23C18.0752 23 23 18.0752 23 12C23 5.92479 18.0752 1 12 1ZM12 16.4687C6.36937 16.4687 6.27083 15.9611 6.27083 12C6.27083 8.03885 6.36937 7.53125 12 7.53125C17.6306 7.53125 17.7292 8.03885 17.7292 12C17.7292 15.9611 17.6306 16.4687 12 16.4687Z" fill="white"/>
</svg>
